<?xml version="1.0" encoding="UTF-8" standalone="no"?>
<svg width="24px" height="38px" viewBox="0 0 24 38" version="1.1" xmlns="http://www.w3.org/2000/svg" xmlns:xlink="http://www.w3.org/1999/xlink" xmlns:sketch="http://www.bohemiancoding.com/sketch/ns">
    <!-- Generator: Sketch 3.3.3 (12081) - http://www.bohemiancoding.com/sketch -->
    <title>Map_pin</title>
    <desc>Created with Sketch.</desc>
    <defs></defs>
    <g id="Page-1" stroke="none" stroke-width="1" fill="none" fill-rule="evenodd" sketch:type="MSPage">
        <g id="Map_pin" sketch:type="MSArtboardGroup" stroke-opacity="0.54" stroke="#000000" fill="red">
            <path d="M19.4902597,4.12858006 C17.3811046,2.04283658 14.8267068,1 11.8269961,1 C8.82728547,1 6.27288773,2.04283658 4.16373264,4.12858006 C2.05457755,6.21432353 1,8.73356868 1,11.6863858 C1,13.4674267 1.90222624,16.4437257 3.70674904,20.6151424 C5.51127183,24.7866293 7.31572432,28.5831085 9.12024711,32.0045799 C10.9247699,35.4260513 11.8269961,37.090034 11.8269961,36.9962469 C12.1082168,36.4806288 12.4948953,35.7775771 12.9870315,34.8870918 C13.4791676,33.9966066 14.3462413,32.3209531 15.5883227,29.8602722 C16.8304042,27.3995913 17.9201343,25.1381552 18.8575131,23.0758233 C19.7949623,21.0136321 20.6620359,18.8809247 21.4588044,16.6780529 C22.2555729,14.475181 22.6539923,12.8112685 22.6539923,11.6863858 C22.6539923,8.73356868 21.5994148,6.21432353 19.4902597,4.12858006 L19.4902597,4.12858006 Z M14.1470668,13.9361512 C13.4909086,14.5923094 12.7058108,14.9204236 11.7918436,14.9204236 C10.8778764,14.9204236 10.0927785,14.5923094 9.43662038,13.9361512 C8.78046223,13.2799931 8.452348,12.4948953 8.452348,11.5809281 C8.452348,10.6669608 8.78046223,9.89360398 9.43662038,9.26085745 C10.0927785,8.62811092 10.8778764,8.31173766 11.7918436,8.31173766 C12.7058108,8.31173766 13.4909086,8.62811092 14.1470668,9.26085745 C14.8032249,9.89360398 15.1313391,10.6669608 15.1313391,11.5809281 C15.1313391,12.4948953 14.8032249,13.2799931 14.1470668,13.9361512 L14.1470668,13.9361512 Z" id="Shape-Copy-2" sketch:type="MSShapeGroup"></path>
        </g>
    </g>
</svg>
